<svg width="347" height="236" viewBox="0 0 347 236" fill="none" xmlns="http://www.w3.org/2000/svg">
<g clip-path="url(#clip0_9_529)">
<path d="M167.163 116.38L130.411 79.6326L88.114 121.934" stroke="#4B0082" stroke-width="6.18783" stroke-miterlimit="10"/>
<path d="M188.45 123.492L174.272 137.669L165.567 128.964C162.547 125.944 162.544 121.037 165.567 118.014L168.797 114.783C171.817 111.763 176.724 111.76 179.747 114.783L188.453 123.489L188.45 123.492Z" stroke="#4B0082" stroke-width="6.18783" stroke-miterlimit="10"/>
<path d="M274.43 139.413L232.128 181.715L195.377 144.963" stroke="#4B0082" stroke-width="6.18783" stroke-miterlimit="10"/>
<path d="M174.275 137.672L188.453 123.494L197.158 132.199C200.178 135.219 200.181 140.127 197.158 143.15L193.928 146.38C190.908 149.4 186 149.403 182.977 146.38L174.272 137.675L174.275 137.672Z" stroke="#4B0082" stroke-width="6.18783" stroke-miterlimit="10"/>
<path d="M179.971 3.64276C230.883 3.64276 272.215 44.9755 272.215 95.8871V233.127H87.7268V95.8871C87.7268 44.9755 129.06 3.64276 179.971 3.64276Z" stroke="#4B0082" stroke-width="6.18783" stroke-miterlimit="10"/>
</g>
<defs>
<clipPath id="clip0_9_529">
<rect width="346.628" height="235.23" fill="white" transform="translate(0 0.769836)"/>
</clipPath>
</defs>
</svg>
