<svg width="160" height="49" viewBox="0 0 160 49" fill="none" xmlns="http://www.w3.org/2000/svg">
<g clip-path="url(#clip0_9_516)">
<path d="M68.9502 18.1082C67.7628 17.4205 66.3807 17.0777 64.8063 17.0777C63.882 17.0777 62.9621 17.279 62.051 17.677C61.1378 18.0772 60.3306 18.6212 59.6319 19.3089C58.9309 19.9966 58.4179 20.7772 58.095 21.6529V17.3409H53.8184V38.0053H58.095V27.2054C58.095 25.956 58.3206 24.8482 58.7695 23.8863C59.2206 22.9244 59.8375 22.1681 60.6247 21.6175C61.412 21.0669 62.3053 20.7927 63.307 20.7927C64.8571 20.7927 66.1065 21.33 67.0574 22.4047C68.0082 23.4794 68.4836 24.9543 68.4836 26.8295V38.0053H72.7227V25.8167C72.7227 23.9659 72.391 22.3914 71.7276 21.0912C71.0642 19.791 70.1399 18.7981 68.9524 18.1104L68.9502 18.1082Z" fill="#9BDDFF"/>
<path d="M92.5954 32.9769C91.8945 33.5009 91.1272 33.9144 90.2891 34.2152C89.451 34.5159 88.6063 34.6663 87.7572 34.6663C86.7068 34.6663 85.7184 34.4783 84.7941 34.1046C83.8697 33.7287 83.1002 33.2113 82.4877 32.5479C81.8752 31.8845 81.4815 31.1415 81.3069 30.3167C81.3312 30.3167 81.4882 30.3233 81.7756 30.3344C82.0631 30.3476 82.3948 30.3587 82.7685 30.372C83.1444 30.3852 83.4562 30.4029 83.7061 30.4272C85.181 30.5024 86.6692 30.4516 88.1685 30.2769C89.6699 30.1022 91.0431 29.7639 92.2947 29.2641C93.5441 28.7644 94.5568 28.0767 95.333 27.201C96.107 26.3253 96.4961 25.2263 96.4961 23.9017C96.4961 22.9509 96.2839 22.0642 95.8593 21.2394C95.4347 20.4146 94.8288 19.6893 94.0394 19.0635C93.2522 18.4377 92.319 17.9512 91.2466 17.6018C90.1719 17.2524 88.9844 17.0777 87.6842 17.0777C86.2336 17.0777 84.8471 17.3276 83.5203 17.8274C82.1958 18.3271 81.026 19.0524 80.0133 20.0033C79.0005 20.9541 78.2 22.0841 77.6118 23.3976C77.0236 24.7111 76.7317 26.1794 76.7317 27.8047C76.7317 29.3039 76.9882 30.686 77.5012 31.9486C78.0143 33.2112 78.7506 34.3169 79.7147 35.2677C80.6766 36.2186 81.8398 36.955 83.2019 37.4812C84.5641 38.0053 86.0832 38.2685 87.7594 38.2685C89.0353 38.2685 90.2581 38.1004 91.4345 37.7621C92.6087 37.4237 93.7166 36.8997 94.7537 36.1876C95.7907 35.4756 96.7217 34.569 97.5465 33.4678L94.3578 31.1791C93.8824 31.8535 93.2942 32.455 92.5954 32.9791V32.9769ZM82.0012 23.8266C82.5894 22.8779 83.3943 22.115 84.4203 21.5379C85.4442 20.963 86.6073 20.6755 87.9075 20.6755C88.7832 20.6755 89.5439 20.8126 90.1962 21.089C90.8463 21.3654 91.3527 21.7325 91.7154 22.1946C92.078 22.6568 92.2593 23.1765 92.2593 23.7514C92.2593 24.4258 92.0095 24.9764 91.5097 25.401C91.01 25.8256 90.3532 26.1573 89.5417 26.3939C88.7279 26.6327 87.8478 26.7941 86.897 26.8826C85.9461 26.971 85.0085 27.013 84.0842 27.013C83.4584 27.013 82.8835 26.9998 82.3594 26.9754C81.8331 26.9511 81.3975 26.9246 81.0459 26.9002C81.0946 25.8012 81.4152 24.7752 82.0012 23.8244V23.8266Z" fill="#9BDDFF"/>
<path d="M112.435 17.3387L108.216 24.3374L103.771 17.3387H98.933L105.596 27.829L98.933 38.0031H103.395L107.603 30.9889L112.059 38.0031H116.897L110.239 27.5216L116.897 17.3387H112.435Z" fill="#9BDDFF"/>
<path d="M134.524 28.2138C134.524 29.4388 134.311 30.5268 133.887 31.4754C133.462 32.4262 132.856 33.1759 132.069 33.7265C131.282 34.2771 130.362 34.5513 129.312 34.5513C127.761 34.5513 126.512 34.0338 125.561 32.9945C124.61 31.9575 124.135 30.4892 124.135 28.5875V17.3365H119.898V29.4875C119.898 31.4135 120.236 33.0255 120.911 34.3257C121.585 35.626 122.536 36.6078 123.761 37.269C124.986 37.9323 126.399 38.264 127.998 38.264C129.247 38.264 130.411 37.9456 131.485 37.3065C132.56 36.6697 133.442 35.6879 134.13 34.3633C134.276 34.0825 134.406 33.7795 134.524 33.4655V35.6016C134.524 36.3026 134.749 36.8776 135.198 37.3264C135.647 37.7753 136.222 38.0009 136.923 38.0009H138.798V17.3365H134.524V28.2138Z" fill="#9BDDFF"/>
<path d="M158.638 29.2088C158.063 28.4459 157.324 27.8467 156.424 27.4088C155.524 26.971 154.569 26.615 153.556 26.3408C152.543 26.0666 151.588 25.7968 150.688 25.5337C149.788 25.2705 149.049 24.9455 148.475 24.5585C147.9 24.1715 147.612 23.6386 147.612 22.9642C147.612 22.2897 147.906 21.7082 148.494 21.2946C149.08 20.8811 149.949 20.6755 151.102 20.6755C152.176 20.6755 153.028 20.9254 153.651 21.4251C154.277 21.9249 154.713 22.6502 154.965 23.601L159.053 22.5507C158.803 21.4251 158.328 20.4566 157.627 19.645C156.926 18.8335 156.039 18.2011 154.965 17.7522C153.89 17.3011 152.652 17.0777 151.252 17.0777C149.627 17.0777 148.22 17.3409 147.033 17.865C145.845 18.389 144.925 19.1033 144.278 20.0033C143.627 20.9033 143.302 21.9028 143.302 23.004C143.302 24.2533 143.59 25.2617 144.165 26.0224C144.74 26.7853 145.483 27.3912 146.396 27.8423C147.307 28.2934 148.278 28.656 149.302 28.9302C150.325 29.2066 151.294 29.4675 152.207 29.7174C153.12 29.9673 153.863 30.2791 154.438 30.655C155.013 31.0309 155.301 31.555 155.301 32.2294C155.301 32.9039 154.982 33.5098 154.345 33.9741C153.709 34.4363 152.764 34.6685 151.515 34.6685C150.54 34.6685 149.671 34.4009 148.908 33.8614C148.145 33.324 147.639 32.5921 147.389 31.6678L143.3 32.5678C143.574 33.5938 144.087 34.5424 144.837 35.4181C145.587 36.2938 146.537 36.9881 147.687 37.4989C148.837 38.0119 150.137 38.2685 151.588 38.2685C153.213 38.2685 154.62 37.9876 155.807 37.4237C156.995 36.8621 157.908 36.1169 158.545 35.1926C159.182 34.2682 159.502 33.2665 159.502 32.1918C159.502 30.9668 159.215 29.9739 158.64 29.211L158.638 29.2088Z" fill="#9BDDFF"/>
<path d="M32.7051 12.5026V0H28.9459V12.5026H15.0502V0H11.2911V12.5026H0.5V28.2646C0.5 39.5731 9.69893 48.772 21.0074 48.772H22.9887C34.2972 48.772 43.4962 39.5731 43.4962 28.2646V12.5026H32.7051ZM39.737 28.2624C39.737 37.4967 32.223 45.0107 22.9887 45.0107H21.0074C11.7731 45.0107 4.25918 37.4967 4.25918 28.2624V16.2596H39.737V28.2624Z" fill="#9BDDFF"/>
<path d="M15.0502 21.6286H11.2911V32.1366H15.0502V21.6286Z" fill="#9BDDFF"/>
<path d="M32.7051 21.6286H28.9459V32.1366H32.7051V21.6286Z" fill="#9BDDFF"/>
</g>
<defs>
<clipPath id="clip0_9_516">
<rect width="159" height="48.7698" fill="white" transform="translate(0.5)"/>
</clipPath>
</defs>
</svg>
